<svg xmlns="http://www.w3.org/2000/svg" width="25.375" height="29" viewBox="0 0 25.375 29">
  <path id="Icon_awesome-shopping-bag" data-name="Icon awesome-shopping-bag" d="M19.938,9.063V7.25a7.25,7.25,0,0,0-14.5,0V9.063H0V24.469A4.531,4.531,0,0,0,4.531,29H20.844a4.531,4.531,0,0,0,4.531-4.531V9.063ZM9.063,7.25a3.625,3.625,0,0,1,7.25,0V9.063H9.063Zm9.063,6.8a1.359,1.359,0,1,1,1.359-1.359A1.359,1.359,0,0,1,18.125,14.047Zm-10.875,0a1.359,1.359,0,1,1,1.359-1.359A1.359,1.359,0,0,1,7.25,14.047Z" fill="#7a838c"/>
</svg>
